<?xml version="1.0" standalone="no"?>
<!DOCTYPE svg PUBLIC "-//W3C//DTD SVG 20010904//EN"
 "http://www.w3.org/TR/2001/REC-SVG-20010904/DTD/svg10.dtd">
<svg version="1.0" xmlns="http://www.w3.org/2000/svg"
 width="223.000000pt" height="117.000000pt" viewBox="0 0 223.000000 117.000000"
 preserveAspectRatio="xMidYMid meet">

<g transform="translate(0.000000,117.000000) scale(0.100000,-0.100000)"
fill="#000000" stroke="none">
<path d="M890 1066 l0 -64 55 -17 c76 -24 83 -19 83 57 0 35 -3 69 -5 76 -4 8
-27 12 -69 12 l-64 0 0 -64z"/>
<path d="M1062 1048 l3 -83 80 0 80 0 3 83 3 82 -86 0 -86 0 3 -82z"/>
<path d="M1270 1040 l0 -80 33 -14 c17 -7 35 -11 40 -9 4 2 7 38 7 79 l0 75
-35 15 c-19 7 -37 14 -40 14 -3 0 -5 -36 -5 -80z"/>
<path d="M103 1069 c-95 -47 -109 -145 -38 -261 21 -35 62 -92 91 -128 92
-117 181 -253 233 -359 28 -57 56 -110 62 -117 24 -29 323 -14 774 40 110 13
245 27 300 30 176 11 343 -15 463 -71 32 -15 34 -15 64 13 77 74 169 264 127
264 -6 0 -24 -11 -41 -25 -16 -14 -42 -25 -56 -25 -32 0 -342 101 -712 232
-57 20 -67 31 -123 129 -30 53 -45 60 -352 158 -413 132 -685 173 -792 120z
m280 -34 c153 -25 417 -98 403 -112 -2 -3 -67 10 -143 27 -274 63 -417 75
-502 42 -35 -13 -49 -26 -66 -60 -22 -44 -35 -46 -35 -4 0 39 32 83 75 103 50
23 142 24 268 4z m-197 -212 c15 -32 48 -89 72 -128 69 -107 137 -255 118
-255 -2 0 -22 34 -44 75 -23 40 -58 98 -79 127 -74 101 -123 204 -108 228 9
15 11 14 41 -47z m462 -156 c17 -16 22 -30 20 -56 -3 -33 -28 -58 -28 -27 0 8
-10 27 -23 42 -31 35 -70 35 -108 -2 -31 -30 -37 -22 -17 22 25 54 108 65 156
21z m821 -83 c217 -66 499 -157 530 -170 60 -27 25 -26 -96 0 -212 48 -534
143 -556 165 -12 12 0 31 20 31 9 0 55 -12 102 -26z"/>
<path d="M1390 991 l0 -78 31 -7 c17 -3 35 -3 40 0 11 6 12 115 1 129 -6 9
-56 35 -67 35 -3 0 -5 -35 -5 -79z"/>
<path d="M1595 1049 c-9 -13 -19 -8 128 -67 l127 -50 0 64 0 64 -124 0 c-78 0
-127 -4 -131 -11z"/>
<path d="M1870 986 c0 -36 2 -66 4 -66 2 0 12 -3 21 -6 14 -6 16 2 13 62 -2
56 -6 69 -20 72 -16 3 -18 -5 -18 -62z"/>
<path d="M1500 950 l0 -70 36 -15 c20 -8 38 -15 40 -15 2 0 4 34 4 75 0 79
-10 95 -59 95 -19 0 -21 -6 -21 -70z"/>
<path d="M1620 906 c0 -62 3 -74 18 -79 9 -2 25 -8 35 -12 15 -6 17 0 17 68
l0 75 -31 11 c-18 6 -34 11 -35 11 -2 0 -4 -33 -4 -74z"/>
<path d="M1130 925 c0 -6 38 -22 75 -31 21 -5 25 -2 25 15 0 19 -6 21 -50 21
-27 0 -50 -2 -50 -5z"/>
<path d="M1730 865 l0 -65 36 -15 c20 -8 38 -15 40 -15 2 0 4 31 4 68 0 64 -2
70 -25 80 -50 23 -55 17 -55 -53z"/>
<path d="M1270 879 c0 -32 56 -149 71 -149 5 0 9 36 9 80 0 77 -1 81 -26 90
-43 17 -54 13 -54 -21z"/>
<path d="M1850 821 c0 -68 0 -69 31 -80 18 -6 36 -11 40 -11 5 0 9 29 9 65 0
61 -1 65 -30 80 -46 24 -50 20 -50 -54z"/>
<path d="M1392 784 c3 -86 3 -88 31 -97 16 -5 31 -6 34 -3 12 12 11 155 -1
165 -6 5 -24 13 -39 16 l-28 7 3 -88z"/>
<path d="M1970 775 c0 -61 2 -66 26 -75 41 -16 44 -13 44 54 0 63 -1 64 -31
75 -18 6 -34 11 -35 11 -2 0 -4 -29 -4 -65z"/>
<path d="M1500 750 l0 -81 32 -14 c18 -7 36 -11 40 -9 5 3 8 40 8 84 l0 78
-31 11 c-18 6 -36 11 -40 11 -5 0 -9 -36 -9 -80z"/>
<path d="M1620 706 l0 -84 31 -11 c18 -6 34 -11 35 -11 8 0 4 169 -3 173 -5 2
-20 7 -35 11 l-28 6 0 -84z"/>
<path d="M2080 730 c0 -47 3 -60 15 -60 12 0 15 13 15 60 0 47 -3 60 -15 60
-12 0 -15 -13 -15 -60z"/>
<path d="M1730 670 c0 -78 1 -80 30 -95 16 -8 34 -15 40 -15 6 0 10 32 10 84
l0 84 -31 11 c-18 6 -36 11 -40 11 -5 0 -9 -36 -9 -80z"/>
<path d="M1850 630 c0 -77 1 -81 26 -90 51 -20 54 -16 54 65 l0 75 -36 15
c-20 8 -38 15 -40 15 -2 0 -4 -36 -4 -80z"/>
<path d="M1970 590 c0 -68 3 -81 19 -90 45 -23 51 -15 51 69 l0 79 -31 11
c-18 6 -34 11 -35 11 -2 0 -4 -36 -4 -80z"/>
<path d="M2087 624 c-4 -4 -7 -41 -7 -81 0 -55 3 -74 13 -71 7 3 13 29 15 73
3 64 -5 94 -21 79z"/>
<path d="M1270 194 c-69 -7 -172 -20 -230 -28 -188 -27 -372 -39 -530 -34
-154 6 -154 6 -120 -13 120 -63 430 -73 795 -26 397 52 518 61 633 48 57 -7
131 -21 165 -31 34 -11 63 -18 65 -16 6 7 -56 46 -110 70 -29 13 -77 28 -106
35 -71 15 -405 12 -562 -5z"/>
<path d="M1460 94 c-69 -7 -188 -22 -265 -34 -77 -12 -166 -25 -199 -30 -32
-5 -61 -12 -65 -16 -10 -12 206 5 349 26 244 37 363 50 485 51 76 1 111 4 95
9 -37 12 -258 9 -400 -6z"/>
<path d="M1918 83 c7 -3 16 -2 19 1 4 3 -2 6 -13 5 -11 0 -14 -3 -6 -6z"/>
</g>
</svg>
